<svg xmlns="http://www.w3.org/2000/svg" width="40" height="39" viewBox="0 0 40 39"><g><g><path fill="#fed136" d="M.755 12.89c0-1.901 1.54-3.442 3.442-3.442H8.08c.06-.221.15-.438.27-.646l4.13-7.153a2.753 2.753 0 1 1 4.77 2.753l-2.914 5.046h11.382l-2.913-5.046a2.753 2.753 0 0 1 4.77-2.753l4.13 7.153c.119.208.209.425.27.646h3.884a3.442 3.442 0 1 1 0 6.883H4.197A3.442 3.442 0 0 1 .755 12.89zm34.522 25.468H4.78l-1.191-20.65h32.88zM18.652 24.59v8.26a1.377 1.377 0 0 0 2.753 0v-8.26a1.376 1.376 0 0 0-2.753 0zm8.26 0v8.26a1.377 1.377 0 0 0 2.753 0v-8.26a1.376 1.376 0 0 0-2.753 0zm-16.52 0v8.26a1.377 1.377 0 1 0 2.753 0v-8.26a1.376 1.376 0 0 0-2.753 0z"/></g></g></svg>